<?xml version="1.0" encoding="UTF-8"?>
<svg version="1.1" xmlns="http://www.w3.org/2000/svg" width="348" height="216">
<path d="M0 0 C114.84 0 229.68 0 348 0 C348 71.28 348 142.56 348 216 C233.16 216 118.32 216 0 216 C0 144.72 0 73.44 0 0 Z " fill="#FDFDFE" transform="translate(0,0)"/>
<path d="M0 0 C0.83329834 0.00676758 1.66659668 0.01353516 2.52514648 0.02050781 C14.52101923 0.22213882 26.78385444 2.47135444 35.5625 11.25 C39.5503799 16.8880371 40.24200698 22.42495196 39.5625 29.25 C37.22626452 41.16795804 30.97766715 51.75005742 23.5625 61.25 C18.06673082 59.05879893 16.12623048 54.3157669 13.5625 49.25 C12.07737975 45.62831104 10.76610778 41.97410406 9.5625 38.25 C12.57262656 59.08324434 22.97785707 69.5065463 39.1875 81.75 C53.55890091 92.9248687 65.15909485 108.42306836 67.5 126.9375 C67.71484375 129.32421875 67.71484375 129.32421875 67.5625 131.25 C65.5625 133.25 65.5625 133.25 61.9375 133.375 C60.82375 133.33375 59.71 133.2925 58.5625 133.25 C58.170625 132.13625 57.77875 131.0225 57.375 129.875 C52.09801005 115.94276019 45.99423567 107.96586783 32.5625 101.25 C18.16982657 100.04774804 7.08231499 103.23449262 -4.4375 112.25 C-7.84493572 115.17339773 -11.16550378 118.17609958 -14.4375 121.25 C-10.93046275 119.61394195 -7.80083048 117.5492791 -4.5625 115.4375 C5.00750063 109.43043372 15.06690261 105.05806018 26.5625 106.25 C27.19458339 119.45351964 25.17051813 131.77250579 16.1875 141.9375 C15.32125 142.700625 14.455 143.46375 13.5625 144.25 C12.634375 145.178125 11.70625 146.10625 10.75 147.0625 C2.47455412 154.06759235 -8.97845035 158.7973934 -19.4375 161.25 C-20.32695312 161.52263672 -20.32695312 161.52263672 -21.234375 161.80078125 C-35.01588842 164.61084161 -49.00459163 161.48151734 -60.75390625 154.1171875 C-73.86323012 144.99599855 -81.42720456 129.2681907 -84.75 113.9375 C-88.69338188 87.73676079 -80.72027851 57.92229572 -65.1875 36.52832031 C-62.80605897 33.55724364 -60.18970764 30.87509765 -57.4375 28.25 C-56.633125 27.404375 -55.82875 26.55875 -55 25.6875 C-54.154375 24.883125 -53.30875 24.07875 -52.4375 23.25 C-51.41462891 22.25226562 -51.41462891 22.25226562 -50.37109375 21.234375 C-36.29282672 7.94702185 -19.49513621 -0.23021845 0 0 Z " fill="#4B3AEB" transform="translate(97.4375,3.75)"/>
<path d="M0 0 C2.78433482 2.20426507 5.41789956 4.4979094 8.03125 6.90234375 C8.77568359 7.58321045 8.77568359 7.58321045 9.53515625 8.27783203 C27.73190849 25.10070668 40.97640347 50.32777397 42.15185547 75.48339844 C42.76402077 96.96351819 40.28579181 113.37019982 27.03125 130.90234375 C26.6290625 131.52882812 26.226875 132.1553125 25.8125 132.80078125 C20.46720296 140.37328539 9.2224319 145.04686828 0.46875 147.40234375 C-18.26302364 150.3693995 -35.74024273 145.03070446 -51.2890625 134.6953125 C-61.3052864 126.9033999 -67.26401457 117.56387871 -68.96875 104.90234375 C-69.03397873 102.61151086 -69.0546341 100.31898581 -69.03125 98.02734375 C-69.02222656 96.87492187 -69.01320312 95.7225 -69.00390625 94.53515625 C-68.99230469 93.66632813 -68.98070312 92.7975 -68.96875 91.90234375 C-53.61432954 90.34263964 -40.10587212 99.47378672 -27.96875 107.90234375 C-35.21960476 97.80293891 -47.62943373 89.23436132 -59.96875 86.90234375 C-69.9981854 85.9602208 -77.77272912 86.53496958 -85.96875 92.90234375 C-93.9266464 99.94569631 -97.9778153 108.84192704 -100.96875 118.90234375 C-104.34375 119.02734375 -104.34375 119.02734375 -107.96875 118.90234375 C-109.96875 116.90234375 -109.96875 116.90234375 -110.34375 114.08984375 C-109.65038807 96.39086825 -97.95712323 81.79392126 -85.6953125 70.22265625 C-81.0704932 66.01418897 -76.13354296 62.42534822 -70.96875 58.90234375 C-60.7260586 51.56309243 -55.73376916 40.99286232 -52.96875 28.90234375 C-52.96875 27.91234375 -52.96875 26.92234375 -52.96875 25.90234375 C-53.44054687 27.09730469 -53.44054687 27.09730469 -53.921875 28.31640625 C-56.18670293 33.9239019 -58.35656681 39.04458015 -61.96875 43.90234375 C-62.62875 44.89234375 -63.28875 45.88234375 -63.96875 46.90234375 C-68.49926677 45.41962917 -70.21931467 41.80782559 -72.46875 37.90234375 C-73.06139648 36.89337036 -73.06139648 36.89337036 -73.66601562 35.86401367 C-79.72616398 25.34794777 -82.82349116 16.11527994 -81.96875 3.90234375 C-80.18772063 -1.99731604 -76.0809042 -5.85543456 -70.96875 -9.09765625 C-47.45553368 -20.26503106 -20.54671423 -14.51787572 0 0 Z " fill="#4B39EB" transform="translate(271.96875,60.09765625)"/>
<path d="M0 0 C0.66 0.33 1.32 0.66 2 1 C2.59355614 3.64860427 2.74209269 6.29197322 3 9 C3.66 9 4.32 9 5 9 C5.495 10.98 5.495 10.98 6 13 C6.33 12.01 6.66 11.02 7 10 C7.99 10 8.98 10 10 10 C10.33 8.35 10.66 6.7 11 5 C11.33 5 11.66 5 12 5 C12 10.94 12 16.88 12 23 C14.35125 22.2884375 14.35125 22.2884375 16.75 21.5625 C19.81929597 20.63363411 22.88200997 19.75035741 26 19 C26 18.01 26 17.02 26 16 C26.66 16 27.32 16 28 16 C28 15.01 28 14.02 28 13 C33.02649303 11.42922093 37.76119922 10.55145271 43 10 C42.8125 11.8125 42.8125 11.8125 42 14 C40.34928604 15.02611949 38.68029994 16.02308143 37 17 C34.72462308 19.57183314 34.72462308 19.57183314 33 22 C34.98 22.66 36.96 23.32 39 24 C39.33 22.68 39.66 21.36 40 20 C42.64 20 45.28 20 48 20 C44.2144581 23.90765616 40.20723744 27.48352405 36.0859375 31.03515625 C34.08897784 32.91618754 32.4845892 34.69535201 31 37 C30.76315895 39.56900326 30.76315895 39.56900326 32 42 C36.97224928 46.01635645 42.28146583 47.54624437 48.375 49.25 C49.30183594 49.518125 50.22867188 49.78625 51.18359375 50.0625 C53.45323768 50.71765495 55.72515917 51.36317219 58 52 C57.505 52.99 57.505 52.99 57 54 C55.34608154 54.39171753 53.67654729 54.72057545 52 55 C50.515 55.495 50.515 55.495 49 56 C46.8125 55.5625 46.8125 55.5625 45 55 C45 55.99 45 56.98 45 58 C45.66 58.33 46.32 58.66 47 59 C47 59.66 47 60.32 47 61 C48.65 60.67 50.3 60.34 52 60 C52.495 61.98 52.495 61.98 53 64 C44.09 64 35.18 64 26 64 C26.95339571 68.76697854 28.49748627 71.9900523 30.9375 76.0625 C35.39386364 83.62795455 35.39386364 83.62795455 37 87 C34.84973834 86.0360896 33.25298067 85.28912076 31.6875 83.5 C29.14103713 81.23647745 26.25554744 80.7985305 23 80 C22.505 81.98 22.505 81.98 22 84 C23.98 84.495 23.98 84.495 26 85 C26.495 88.465 26.495 88.465 27 92 C26.01 92 25.02 92 24 92 C23.92394531 91.26523438 23.84789062 90.53046875 23.76953125 89.7734375 C21.77632679 82.5898072 12.99024211 77.78768497 6.9375 74.125 C-3.0075978 68.68548585 -11.50148764 66.55212856 -23 68 C-32.13034994 71.00925391 -38.97423642 77.44247505 -43.53125 85.8125 C-45.68696843 90.42473477 -47.54794207 95.11580515 -49 100 C-52.375 100.125 -52.375 100.125 -56 100 C-58 98 -58 98 -58.375 95.1875 C-57.68163807 77.4885245 -45.98837323 62.89157751 -33.7265625 51.3203125 C-29.1017432 47.11184522 -24.16479296 43.52300447 -19 40 C-8.81706641 32.70356727 -3.61288229 22.0766145 -1 10 C-0.78391999 7.58156604 -0.84142844 5.43143053 -1 3 C-0.67 2.01 -0.34 1.02 0 0 Z " fill="#4B3AEA" transform="translate(220,79)"/>
<path d="M0 0 C0.99 0.33 1.98 0.66 3 1 C2.67 1.33 2.34 1.66 2 2 C1.95936168 3.66617115 1.957279 5.33388095 2 7 C13.85608917 12.0988609 25.26868963 13.62601243 38 15 C38 15.33 38 15.66 38 16 C37.236875 16.144375 36.47375 16.28875 35.6875 16.4375 C32.91827092 16.9632594 32.91827092 16.9632594 30 18 C27.8125 17.5625 27.8125 17.5625 26 17 C26 17.99 26 18.98 26 20 C26.66 20.33 27.32 20.66 28 21 C28 21.66 28 22.32 28 23 C29.65 22.67 31.3 22.34 33 22 C33.495 23.98 33.495 23.98 34 26 C25.09 26 16.18 26 7 26 C7.95339571 30.76697854 9.49748627 33.9900523 11.9375 38.0625 C16.39386364 45.62795455 16.39386364 45.62795455 18 49 C15.84973834 48.0360896 14.25298067 47.28912076 12.6875 45.5 C10.14103713 43.23647745 7.25554744 42.7985305 4 42 C3.67 43.32 3.34 44.64 3 46 C4.32 46.33 5.64 46.66 7 47 C7.33 49.31 7.66 51.62 8 54 C7.01 54 6.02 54 5 54 C4.92394531 53.26523438 4.84789062 52.53046875 4.76953125 51.7734375 C2.74968708 44.49379609 -6.1662427 39.7061352 -12.3125 36.0625 C-15.80086107 34.09243761 -19.25109358 32.41352209 -23 31 C-19.18510326 29.53273202 -16.70988378 30.56663581 -13 32 C-13 32.66 -13 33.32 -13 34 C-12.05125 34.144375 -11.1025 34.28875 -10.125 34.4375 C-7 35 -7 35 -5 36 C-4.85911147 32.25728667 -4.85911147 32.25728667 -5.5 29.6875 C-6.10707215 26.42448721 -6.06493033 23.31144674 -6 20 C-5.34 20 -4.68 20 -4 20 C-4 19.34 -4 18.68 -4 18 C0.95 18 5.9 18 11 18 C10.67 16.35 10.34 14.7 10 13 C8.23532485 11.82672585 8.23532485 11.82672585 6.0625 11.3125 C3.22344402 10.47263408 2.15045866 10.15045866 0 8 C-0.26991906 5.31160615 -0.08737357 2.70858064 0 0 Z " fill="#5345D7" transform="translate(239,117)"/>
<path d="M0 0 C0.495 0.495 0.495 0.495 1 1 C0.3684833 11.44528622 -7.68968682 18.02744819 -15.0625 24.6875 C-16.70132087 26.13298946 -18.34457827 27.57355249 -20 29 C-20 24.21935842 -16.82033419 20.63492782 -14.28710938 16.71289062 C-13.88427734 16.06900391 -13.48144531 15.42511719 -13.06640625 14.76171875 C-12.5086853 13.8948645 -12.5086853 13.8948645 -11.93969727 13.01049805 C-10.6315394 10.44641857 -10.6315394 10.44641857 -10 5 C-19.24 5.33 -28.48 5.66 -38 6 C-27.71335233 -0.85776511 -11.95715669 -0.89495283 0 0 Z " fill="#F3EFFD" transform="translate(91,95)"/>
<path d="M0 0 C6.46779815 0.03333917 12.5383297 0.91993662 18.875 2.1875 C19.74809814 2.36112061 20.62119629 2.53474121 21.52075195 2.71362305 C25.36212712 3.52873402 27.86640139 4.09843426 31.1875 6.3125 C22.2775 6.3125 13.3675 6.3125 4.1875 6.3125 C5.14089571 11.07947854 6.68498627 14.3025523 9.125 18.375 C13.58136364 25.94045455 13.58136364 25.94045455 15.1875 29.3125 C10.65967791 27.25949322 7.71878254 24.17455853 4.25 20.6875 C3.64220703 20.09582031 3.03441406 19.50414062 2.40820312 18.89453125 C-1.56966899 14.92095026 -5.70713519 10.60924869 -7.8125 5.3125 C-7.0313715 -0.11820292 -5.18152671 0.11460886 0 0 Z " fill="#F3F0FE" transform="translate(241.8125,136.6875)"/>
<path d="M0 0 C5.07725544 1.65890524 9.11868637 4.6369392 13.4375 7.6875 C14.54448242 8.44450195 14.54448242 8.44450195 15.67382812 9.21679688 C20.33884779 12.49682404 25.03973858 16.02478874 28 21 C28 22.32 28 23.64 28 25 C20.4982176 29.53232687 12.51205798 30.62793316 4 32 C2.948125 32.19078125 1.89625 32.3815625 0.8125 32.578125 C-1.80534369 32.97080155 -4.23264837 33.10253563 -6.875 33.0625 C-7.65617187 33.05347656 -8.43734375 33.04445312 -9.2421875 33.03515625 C-9.82226562 33.02355469 -10.40234375 33.01195312 -11 33 C-6.85035854 30.23357236 -2.28193482 29.29664763 2.48828125 28.03125 C7.50636317 26.63291324 11.69510518 24.97773812 16 22 C17.29483974 20.07464589 17.29483974 20.07464589 17 18 C15.94231455 16.07028517 15.94231455 16.07028517 14.1875 14.3125 C13.55070312 13.62671875 12.91390625 12.9409375 12.2578125 12.234375 C8.9372668 8.94829863 5.46728595 5.8486255 1.94140625 2.78515625 C1.30074219 2.19605469 0.66007812 1.60695312 0 1 C0 0.67 0 0.34 0 0 Z " fill="#F3F0FE" transform="translate(59,57)"/>
<path d="M0 0 C0.66 0.33 1.32 0.66 2 1 C1.02417969 1.81984375 0.04835938 2.6396875 -0.95703125 3.484375 C-2.242375 4.57269526 -3.52752089 5.66124923 -4.8125 6.75 C-5.45509766 7.28882812 -6.09769531 7.82765625 -6.75976562 8.3828125 C-11.37442981 12.24225981 -11.37442981 12.24225981 -15 17 C-15.23684105 19.56900326 -15.23684105 19.56900326 -14 22 C-9.02775072 26.01635645 -3.71853417 27.54624437 2.375 29.25 C3.30183594 29.518125 4.22867187 29.78625 5.18359375 30.0625 C7.45323768 30.71765495 9.72515917 31.36317219 12 32 C12 32.33 12 32.66 12 33 C-16.90452664 32.33781153 -16.90452664 32.33781153 -26 25 C-26.52734375 22.5703125 -26.52734375 22.5703125 -26 20 C-21.67391707 13.46773802 -14.50224672 9.0905255 -8.0625 4.875 C-7.30461182 4.37726074 -6.54672363 3.87952148 -5.76586914 3.36669922 C-5.05035889 2.91311035 -4.33484863 2.45952148 -3.59765625 1.9921875 C-2.95320557 1.58339355 -2.30875488 1.17459961 -1.64477539 0.75341797 C-1.10199951 0.50479004 -0.55922363 0.25616211 0 0 Z " fill="#EFEBFD" transform="translate(266,99)"/>
<path d="M0 0 C4.77614826 4.77614826 5.19354322 14.23865092 5.25 20.75 C5.17105263 24.82894737 5.17105263 24.82894737 4 26 C-5.43317948 27.45125838 -13.12230907 21.83361128 -20.50390625 16.53125 C-23.38011469 14.40994207 -26.20183595 12.22340603 -29 10 C-28.34 9.67 -27.68 9.34 -27 9 C-24.35027967 10.17633324 -21.81416324 11.40817981 -19.25 12.75 C-18.54617187 13.1109375 -17.84234375 13.471875 -17.1171875 13.84375 C-14.01440455 15.43551226 -10.92511046 17.04061174 -7.859375 18.703125 C-4.59289948 20.33272237 -4.59289948 20.33272237 1 21 C0.67 14.07 0.34 7.14 0 0 Z " fill="#E6E1FD" transform="translate(94,39)"/>
<path d="M0 0 C0.33 0 0.66 0 1 0 C1 5.94 1 11.88 1 18 C8.94010903 16.07900588 15.75103988 12.76957391 22.92919922 8.96118164 C23.68475098 8.56664795 24.44030273 8.17211426 25.21875 7.765625 C25.89873047 7.40243164 26.57871094 7.03923828 27.27929688 6.66503906 C27.84712891 6.44557617 28.41496094 6.22611328 29 6 C29.66 6.33 30.32 6.66 31 7 C7.25051524 24.51613399 7.25051524 24.51613399 0.265625 23.66796875 C-2 23 -2 23 -3 22 C-3.62092514 14.85214078 -3.25775887 6.51551774 0 0 Z " fill="#EAE5FD" transform="translate(231,84)"/>
<path d="M0 0 C2.625 2.25 2.625 2.25 4 4 C1.03432864 3.3705249 -0.69589604 2.60776768 -3.4375 1.0625 C-8.19590287 -1.42484696 -13.06006844 -1.9568626 -18.33984375 -2.60546875 C-21 -3 -21 -3 -22 -4 C-33.84268281 -4.65707789 -43.98399098 -3.32771783 -55 1 C-55.66 1 -56.32 1 -57 1 C-57 1.66 -57 2.32 -57 3 C-58.57421875 4.18359375 -58.57421875 4.18359375 -60.6875 5.4375 C-61.41839844 5.87191406 -62.14929688 6.30632813 -62.90234375 6.75390625 C-63.94068359 7.37072266 -63.94068359 7.37072266 -65 8 C-66.36125 8.928125 -66.36125 8.928125 -67.75 9.875 C-70.43779126 11.21889563 -71.22692391 10.85056536 -74 10 C-53.33556046 -6.69734083 -24.46029594 -12.40869027 0 0 Z " fill="#5A4DCE" transform="translate(127,10)"/>
<path d="M0 0 C0.72445312 0.47050781 1.44890625 0.94101562 2.1953125 1.42578125 C9.40010298 6.06820817 9.40010298 6.06820817 17 10 C16.67 10.66 16.34 11.32 16 12 C15.01 12 14.02 12 13 12 C13 11.34 13 10.68 13 10 C11.02 10 9.04 10 7 10 C7.33 11.32 7.66 12.64 8 14 C8.66 14 9.32 14 10 14 C12.04169485 16.90548882 13 18.40142046 13 22 C12.56171875 21.5875 12.1234375 21.175 11.671875 20.75 C6.5728905 16.10702224 1.1462581 12.32148725 -4.65625 8.6015625 C-5.81640625 7.80878906 -5.81640625 7.80878906 -7 7 C-7 6.67 -7 6.34 -7 6 C-4.69 5.34 -2.38 4.68 0 4 C0 2.68 0 1.36 0 0 Z " fill="#5445DB" transform="translate(71,53)"/>
<path d="M0 0 C-0.1875 1.8125 -0.1875 1.8125 -1 4 C-3.5 5.625 -3.5 5.625 -6 7 C-6.33 7.66 -6.66 8.32 -7 9 C-8.72087933 9.95972116 -10.44315987 10.91711194 -12.17578125 11.85546875 C-14.26150292 13.05428466 -14.26150292 13.05428466 -16.4375 15.625 C-20.65010497 19.52936558 -25.38420276 20.09089597 -31 20.125 C-31.99 20.08375 -32.98 20.0425 -34 20 C-33.67 19.34 -33.34 18.68 -33 18 C-31.00197643 17.65501751 -29.00158484 17.32368078 -27 17 C-17.84823687 13.3652572 -9.91500261 7.74475996 -2 2 C-3.37285156 2.6496875 -3.37285156 2.6496875 -4.7734375 3.3125 C-5.96195312 3.869375 -7.15046875 4.42625 -8.375 5 C-9.55835938 5.556875 -10.74171875 6.11375 -11.9609375 6.6875 C-15 8 -15 8 -17 8 C-17 7.34 -17 6.68 -17 6 C-16.34 6 -15.68 6 -15 6 C-15 5.01 -15 4.02 -15 3 C-12.66836622 2.32741333 -10.3347961 1.66152556 -8 1 C-6.9171875 0.690625 -6.9171875 0.690625 -5.8125 0.375 C-4 0 -4 0 0 0 Z " fill="#584ACE" transform="translate(263,89)"/>
<path d="M0 0 C0.33 0 0.66 0 1 0 C1.09765625 6.15234375 1.09765625 6.15234375 1 8 C0.67 8.33 0.34 8.66 0 9 C-0.24286328 11.46461256 -0.42692654 13.90392919 -0.5625 16.375 C-0.6035083 17.10525391 -0.6445166 17.83550781 -0.68676758 18.58789062 C-1.29337736 29.99165225 -0.58671975 40.70878894 1 52 C1.66 52 2.32 52 3 52 C3 53.98 3 55.96 3 58 C-3.76598143 51.23401857 -4.11856939 37.32225335 -4.3125 28.375 C-4.30563271 18.90271792 -3.00053881 9.00161642 0 0 Z " fill="#685DD1" transform="translate(16,76)"/>
<path d="M0 0 C0 3.96 0 7.92 0 12 C-0.33 12 -0.66 12 -1 12 C-1 8.37 -1 4.74 -1 1 C-2.753125 1.268125 -4.50625 1.53625 -6.3125 1.8125 C-7.79169922 2.03873047 -7.79169922 2.03873047 -9.30078125 2.26953125 C-12.23586824 3.0638312 -12.98469129 3.84665645 -15 6 C-17.15625 6.87890625 -17.15625 6.87890625 -19.5 7.5625 C-22.5258466 8.45512475 -24.3126529 9.20843526 -27 11 C-28.32 11 -29.64 11 -31 11 C-31.33 11.99 -31.66 12.98 -32 14 C-33.32796291 14.35412344 -34.66216607 14.68521554 -36 15 C-37.02019573 15.9793879 -38.02149805 16.97895449 -39 18 C-39.99 18.33 -40.98 18.66 -42 19 C-39.95998892 12.87996675 -31.47668975 9.07231943 -26 6 C-17.57879332 1.82244387 -9.50733496 -0.89131265 0 0 Z " fill="#5D50CD" transform="translate(124,110)"/>
<path d="M0 0 C2.56268974 2.56268974 3.05976424 4.79390177 4.125 8.25 C4.47820312 9.36890625 4.83140625 10.4878125 5.1953125 11.640625 C5.98604673 14.94174849 6.30250184 17.62368919 6 21 C4 23 4 23 0.375 23.125 C-0.73875 23.08375 -1.8525 23.0425 -3 23 C-3.391875 21.88625 -3.78375 20.7725 -4.1875 19.625 C-6.0813368 14.55673199 -8.52463553 9.80367759 -11 5 C-11.66847887 3.66757431 -12.33578318 2.33455545 -13 1 C-12.01 1 -11.02 1 -10 1 C-6 7.75 -6 7.75 -6 10 C-5.34 10 -4.68 10 -4 10 C-3.67 13.63 -3.34 17.26 -3 21 C-0.69 21 1.62 21 4 21 C4 18.36 4 15.72 4 13 C3.34 13 2.68 13 2 13 C1.66127487 11.58461283 1.32925376 10.16762037 1 8.75 C0.814375 7.96109375 0.62875 7.1721875 0.4375 6.359375 C0 4 0 4 0 0 Z " fill="#6155CB" transform="translate(159,114)"/>
<path d="M0 0 C0.66 0.33 1.32 0.66 2 1 C1.56429687 1.49628906 1.12859375 1.99257813 0.6796875 2.50390625 C0.08414063 3.18324219 -0.51140625 3.86257812 -1.125 4.5625 C-1.76308594 5.28695313 -2.40117188 6.01140625 -3.05859375 6.7578125 C-4.28192375 8.1706725 -5.48561277 9.60101721 -6.66015625 11.0546875 C-7.16417969 11.67601562 -7.66820313 12.29734375 -8.1875 12.9375 C-8.63480469 13.50339844 -9.08210938 14.06929687 -9.54296875 14.65234375 C-11.29481505 16.27268417 -12.67482523 16.60666208 -15 17 C-14.94199219 17.73605469 -14.88398437 18.47210938 -14.82421875 19.23046875 C-15.03132033 22.49346918 -15.83187802 23.75359423 -17.8125 26.3125 C-18.33457031 27.00988281 -18.85664062 27.70726563 -19.39453125 28.42578125 C-21 30 -21 30 -24 30 C-19.41458384 17.74365399 -9.91695273 8.2025859 0 0 Z " fill="#5D4FD1" transform="translate(51,21)"/>
<path d="M0 0 C2.36328125 1.63671875 2.36328125 1.63671875 4 3 C1.08710768 2.59354991 -1.52900289 2.20385215 -4.23828125 1.03125 C-17.07343589 -3.7615093 -33.42882077 -3.40044876 -46.125 1.02734375 C-48.7491247 1.91512507 -51.27513089 2.5241497 -54 3 C-52.68223891 0.36447783 -51.06790411 0.02485185 -48.39208984 -0.95532227 C-33.1567031 -6.01350017 -14.90504975 -6.58288017 0 0 Z " fill="#594CC9" transform="translate(254,50)"/>
<path d="M0 0 C0.66 0 1.32 0 2 0 C0.39375491 4.41717399 -1.58432296 7.77256518 -4 12 C0.29 8.04 4.58 4.08 9 0 C9 2.71929057 8.94379835 4.4832044 8 7 C5.9375 8.75 5.9375 8.75 4 10 C4.33 11.98 4.66 13.96 5 16 C4.01 16 3.02 16 2 16 C1.67 15.01 1.34 14.02 1 13 C-1.31 13.33 -3.62 13.66 -6 14 C-6.33 13.01 -6.66 12.02 -7 11 C-6.67 10.34 -6.34 9.68 -6 9 C-5.34 9 -4.68 9 -4 9 C-4 8.01 -4 7.02 -4 6 C-3.34 6 -2.68 6 -2 6 C-1.34 4.02 -0.68 2.04 0 0 Z " fill="#5345D6" transform="translate(75,111)"/>
<path d="M0 0 C0 0.66 0 1.32 0 2 C-0.99 2.495 -0.99 2.495 -2 3 C-2.33 3.99 -2.66 4.98 -3 6 C-5.0625 6.6875 -5.0625 6.6875 -7 7 C-9.47975569 16.29908382 -7.61079042 24.95547605 -5 34 C-4.34 34 -3.68 34 -3 34 C-2.71125 34.763125 -2.4225 35.52625 -2.125 36.3125 C-1.03730987 39.15029308 -1.03730987 39.15029308 1 42 C1 42.66 1 43.32 1 44 C1.66 44 2.32 44 3 44 C3.33 45.32 3.66 46.64 4 48 C3.01 48.495 3.01 48.495 2 49 C-5.36076515 36.56231297 -11.58333462 25.98745507 -10 11 C-8.52417242 6.72786752 -5.14028762 0 0 0 Z " fill="#6256C9" transform="translate(200,53)"/>
<path d="M0 0 C2.18648367 4.37296734 2.23362071 7.5208216 2.125 12.25 C2.11597656 12.99507812 2.10695313 13.74015625 2.09765625 14.5078125 C2.07418358 16.33868059 2.03831525 18.16938238 2 20 C-4.078334 20.68418441 -8.38909845 18.30224292 -13.6875 15.6875 C-14.54150391 15.28337891 -15.39550781 14.87925781 -16.27539062 14.46289062 C-20.05074644 12.6389756 -23.14968382 11.13540414 -26 8 C-20.99474798 8.38501939 -17.74271739 10.1794031 -13.5234375 12.65625 C-9.19993731 14.95854732 -4.62864176 16.41805915 0 18 C0 12.06 0 6.12 0 0 Z " fill="#594CC9" transform="translate(93,40)"/>
<path d="M0 0 C8.37775061 6.84810513 8.37775061 6.84810513 11 11 C11.0625 13.0625 11.0625 13.0625 10 15 C6.20966422 18.52161795 2.2979845 20.25924782 -2.5625 21.8125 C-3.5515332 22.15571289 -3.5515332 22.15571289 -4.56054688 22.50585938 C-8.01403852 23.64082598 -10.55333785 24.42953163 -14 23 C-13.67 22.34 -13.34 21.68 -13 21 C-8.17574056 19.52819204 -4.07522852 18.74623857 1 19 C1 18.34 1 17.68 1 17 C2.32 17 3.64 17 5 17 C5.33 16.01 5.66 15.02 6 14 C6.99 14 7.98 14 9 14 C7.82191948 10.6470016 6.80593388 8.2447471 4 6 C3.01 5.67 2.02 5.34 1 5 C0.67 3.35 0.34 1.7 0 0 Z " fill="#5446CA" transform="translate(66,64)"/>
<path d="M0 0 C0.66 0.33 1.32 0.66 2 1 C3.35713282 5.87974533 2.66361236 10.03947677 1.5625 14.875 C1.41490234 15.56335938 1.26730469 16.25171875 1.11523438 16.9609375 C0.75317961 18.64274029 0.37793884 20.32169534 0 22 C-0.99 22.33 -1.98 22.66 -3 23 C-3.80212628 24.87387216 -3.80212628 24.87387216 -4.1875 27.0625 C-4.34605469 27.79597656 -4.50460938 28.52945313 -4.66796875 29.28515625 C-4.77753906 29.85105469 -4.88710937 30.41695312 -5 31 C-6.32 30.67 -7.64 30.34 -9 30 C-8.59007812 29.2265625 -8.18015625 28.453125 -7.7578125 27.65625 C-3.35684524 19.14911712 -0.8098973 12.69523759 -1 3 C-0.67 2.01 -0.34 1.02 0 0 Z " fill="#5849DE" transform="translate(220,79)"/>
<path d="M0 0 C1 3 1 3 0.3046875 4.9609375 C-1.18073251 7.28246219 -2.78347226 8.83338945 -4.875 10.625 C-5.55304688 11.21539062 -6.23109375 11.80578125 -6.9296875 12.4140625 C-10.04510102 14.80058682 -12.0333629 16 -16 16 C-16 16.66 -16 17.32 -16 18 C-17.65848177 19.01351664 -19.32665961 20.01120795 -21 21 C-22.36984198 22.29579647 -23.7151049 23.61992749 -25 25 C-25.66 24.67 -26.32 24.34 -27 24 C-22.34356793 18.91447692 -17.27530017 14.90731415 -11.66015625 10.921875 C-7.22915431 7.7206225 -3.05771133 4.58656699 0 0 Z " fill="#584BCF" transform="translate(210,110)"/>
<path d="M0 0 C0.33 0 0.66 0 1 0 C1 6.27 1 12.54 1 19 C4.96 18.34 8.92 17.68 13 17 C8.20179866 20.598651 5.02028393 22.34401622 -1 22 C-2.70913373 18.58173253 -2.18458479 14.76645237 -2.1875 11 C-2.19974609 10.16726562 -2.21199219 9.33453125 -2.22460938 8.4765625 C-2.22654297 7.67992188 -2.22847656 6.88328125 -2.23046875 6.0625 C-2.23457764 5.33160156 -2.23868652 4.60070312 -2.24291992 3.84765625 C-2 2 -2 2 0 0 Z " fill="#6356D5" transform="translate(233,80)"/>
<path d="M0 0 C3.3 0 6.6 0 10 0 C10 0.33 10 0.66 10 1 C7.36 1 4.72 1 2 1 C2.14224587 3.52108103 2.28870121 6.04180403 2.4375 8.5625 C2.47681641 9.26697266 2.51613281 9.97144531 2.55664062 10.69726562 C2.82518279 15.1798541 3.30616197 19.56293497 4 24 C4.66 24 5.32 24 6 24 C6.33 24.99 6.66 25.98 7 27 C7.66 27.33 8.32 27.66 9 28 C9 29.65 9 31.3 9 33 C3.00044565 28.28606444 0.91581887 20.28991818 0 13 C-0.06522873 10.70916711 -0.0858841 8.41664206 -0.0625 6.125 C-0.05347656 4.97257813 -0.04445312 3.82015625 -0.03515625 2.6328125 C-0.02355469 1.76398438 -0.01195312 0.89515625 0 0 Z " fill="#5D50C1" transform="translate(203,152)"/>
<path d="M0 0 C0.79672119 -0.0009668 1.59344238 -0.00193359 2.41430664 -0.00292969 C3.25598389 0.01479492 4.09766113 0.03251953 4.96484375 0.05078125 C6.25539673 0.0677002 6.25539673 0.0677002 7.57202148 0.08496094 C17.90096482 0.30778231 29.39111359 1.63936969 37.52734375 8.61328125 C37.98109375 9.19078125 38.43484375 9.76828125 38.90234375 10.36328125 C35.93667239 9.73380615 34.20644771 8.97104893 31.46484375 7.42578125 C26.70644088 4.93843429 21.84227531 4.40641865 16.5625 3.7578125 C13.90234375 3.36328125 13.90234375 3.36328125 12.90234375 2.36328125 C10.47406762 2.26259663 8.08035964 2.22456365 5.65234375 2.23828125 C4.98332031 2.23441406 4.31429687 2.23054687 3.625 2.2265625 C-0.07569255 2.23383302 -3.50025572 2.48484624 -7.09765625 3.36328125 C-4.81755446 0.65535271 -3.52978406 -0.01468263 0 0 Z " fill="#5346C7" transform="translate(92.09765625,3.63671875)"/>
<path d="M0 0 C0.33 0 0.66 0 1 0 C1.72092326 30.23810951 1.72092326 30.23810951 -5 44 C-6.14027163 40.64040774 -5.84181003 38.75819284 -4.6875 35.4375 C-0.98277124 23.76506692 -0.47857093 12.15318278 0 0 Z " fill="#5548CB" transform="translate(313,133)"/>
<path d="M0 0 C0.75410156 0.00451172 1.50820312 0.00902344 2.28515625 0.01367188 C4.14847127 0.02546501 6.01174555 0.04340058 7.875 0.0625 C7.875 0.7225 7.875 1.3825 7.875 2.0625 C6.87082031 2.09988281 5.86664063 2.13726562 4.83203125 2.17578125 C-3.19248847 2.53954633 -10.64820323 3.37131913 -18.453125 5.44140625 C-21.125 6.0625 -21.125 6.0625 -25.125 6.0625 C-25.125 5.4025 -25.125 4.7425 -25.125 4.0625 C-20.92924158 1.96462079 -16.93560813 1.64678755 -12.33203125 1.30859375 C-0.54169261 -0.00608118 -0.54169261 -0.00608118 0 0 Z " fill="#5447C8" transform="translate(82.125,92.9375)"/>
<path d="M0 0 C3.0000624 -0.02721831 5.99987256 -0.04694378 9 -0.0625 C9.83917969 -0.07087891 10.67835938 -0.07925781 11.54296875 -0.08789062 C16.79319339 -0.10824033 21.80455662 0.23631793 27 1 C26.67 1.66 26.34 2.32 26 3 C19.47670251 3.12544803 19.47670251 3.12544803 17.21875 2.53125 C14.07994661 1.77970553 10.96784105 1.64606377 7.75 1.4375 C6.48671875 1.35371094 5.2234375 1.26992187 3.921875 1.18359375 C2.95765625 1.12300781 1.9934375 1.06242188 1 1 C2.0533863 3.75536417 3.05808268 6.08819963 4.6875 8.5625 C6 11 6 11 5.58203125 13.15234375 C5.38996094 13.76207031 5.19789063 14.37179688 5 15 C3.96427104 13.25877451 2.9468748 11.50663405 1.9375 9.75 C1.08478516 8.28820312 1.08478516 8.28820312 0.21484375 6.796875 C-1.11976196 3.72427792 -0.96032821 3.04341404 0 0 Z " fill="#5144C8" transform="translate(246,142)"/>
<path d="M0 0 C0.33 1.32 0.66 2.64 1 4 C0.34 4 -0.32 4 -1 4 C-1.12375 4.70125 -1.2475 5.4025 -1.375 6.125 C-3.11111111 14.11111111 -3.11111111 14.11111111 -6 17 C-6.26005804 18.98294257 -6.51548511 20.96706955 -6.71484375 22.95703125 C-7.07081982 25.50738036 -7.91058424 27.67591304 -9 30 C-9.33 30 -9.66 30 -10 30 C-11.0195961 19.03934187 -5.99761973 8.85648514 0 0 Z " fill="#6256D0" transform="translate(172,147)"/>
<path d="M0 0 C0.86560547 0.00451172 1.73121094 0.00902344 2.62304688 0.01367188 C4.72789539 0.02530087 6.83270758 0.04322927 8.9375 0.0625 C9.1875 5.703125 9.1875 5.703125 6.9375 8.9375 C6.2775 9.63875 5.6175 10.34 4.9375 11.0625 C4.9375 9.4125 4.9375 7.7625 4.9375 6.0625 C5.5975 6.0625 6.2575 6.0625 6.9375 6.0625 C6.9375 4.7425 6.9375 3.4225 6.9375 2.0625 C4.87507383 2.03532308 2.81254297 2.0160242 0.75 2 C-0.39855469 1.98839844 -1.54710938 1.97679688 -2.73046875 1.96484375 C-5.67070977 2.05101729 -8.20105748 2.45205893 -11.0625 3.0625 C-12.49878457 3.12516512 -13.9375555 3.14936347 -15.375 3.125 C-17.2003125 3.0940625 -17.2003125 3.0940625 -19.0625 3.0625 C-19.0625 2.4025 -19.0625 1.7425 -19.0625 1.0625 C-12.660906 0.24211409 -6.44947499 -0.06504513 0 0 Z " fill="#5547CA" transform="translate(72.0625,99.9375)"/>
<path d="M0 0 C0 0.66 0 1.32 0 2 C1.051875 1.835 2.10375 1.67 3.1875 1.5 C6.20468796 1.10430322 8.97093972 0.90821029 12 1 C9.18081728 2.87945515 8.05507273 3.34357544 4.8671875 3.8515625 C4.06023437 3.98046875 3.25328125 4.109375 2.421875 4.2421875 C1.16117188 4.43167969 1.16117188 4.43167969 -0.125 4.625 C-0.94226563 4.7590625 -1.75953125 4.893125 -2.6015625 5.03125 C-8.1284806 5.88827211 -13.40835481 6.12375875 -19 6 C-15.66135833 3.77423889 -12.79479374 2.95201066 -8.9375 1.875 C-7.68839844 1.52179688 -6.43929687 1.16859375 -5.15234375 0.8046875 C-2 0 -2 0 0 0 Z " fill="#E7E1FC" transform="translate(67,84)"/>
<path d="M0 0 C0.66 0.99 1.32 1.98 2 3 C0.90496784 6.28509647 0.33769988 6.70694377 -2.3125 8.6875 C-6.31316293 11.95553124 -7.9697129 15.28973392 -10 20 C-10.33 18.68 -10.66 17.36 -11 16 C-10.34 16 -9.68 16 -9 16 C-9.0928125 15.12085938 -9.185625 14.24171875 -9.28125 13.3359375 C-8.91840353 9.03217522 -7.47554352 7.68319751 -4.5 4.625 C-3.6646875 3.75101563 -2.829375 2.87703125 -1.96875 1.9765625 C-0.99421875 0.99816406 -0.99421875 0.99816406 0 0 Z " fill="#5444D9" transform="translate(182,135)"/>
<path d="M0 0 C2.31 0 4.62 0 7 0 C4.26905855 2.08218839 1.48913427 4.04315155 -1.375 5.9375 C-2.15488281 6.45441406 -2.93476562 6.97132812 -3.73828125 7.50390625 C-4.48464844 7.99761719 -5.23101562 8.49132812 -6 9 C-7.18787207 9.79110828 -8.37543397 10.58268277 -9.5625 11.375 C-10.366875 11.91125 -11.17125 12.4475 -12 13 C-12 12.01 -12 11.02 -12 10 C-11.34 10 -10.68 10 -10 10 C-10.33 9.01 -10.66 8.02 -11 7 C-10.34 6.01 -9.68 5.02 -9 4 C-6.375 3.8125 -6.375 3.8125 -4 4 C-3.67 3.34 -3.34 2.68 -3 2 C-2.01 2 -1.02 2 0 2 C0 1.34 0 0.68 0 0 Z " fill="#5446D4" transform="translate(99,107)"/>
<path d="M0 0 C0.66 0.33 1.32 0.66 2 1 C-3.00247057 8.0034588 -9.27417021 11.48922928 -17 15 C-17.66 15 -18.32 15 -19 15 C-19 14.34 -19 13.68 -19 13 C-18.01 13 -17.02 13 -16 13 C-16 12.34 -16 11.68 -16 11 C-15.01 11 -14.02 11 -13 11 C-12.7215625 10.0409375 -12.7215625 10.0409375 -12.4375 9.0625 C-11 7 -11 7 -7.375 6.25 C-6.26125 6.1675 -5.1475 6.085 -4 6 C-3.67 4.35 -3.34 2.7 -3 1 C-2.01 0.67 -1.02 0.34 0 0 Z " fill="#5649CE" transform="translate(297,190)"/>
<path d="M0 0 C3.62528568 -0.20140476 5.86501708 0.14223235 9 2 C9 2.66 9 3.32 9 4 C10.2375 4.185625 10.2375 4.185625 11.5 4.375 C15 5 15 5 18.5 6 C24.53089054 7.57839713 30.80133252 7.66917224 37 8 C37 8.33 37 8.66 37 9 C23.33213427 9.4683152 11.85389154 8.57331959 0 1 C0 0.67 0 0.34 0 0 Z " fill="#5B4EC9" transform="translate(37,157)"/>
<path d="M0 0 C2.53421852 2.53421852 3.20561884 4.88823085 4.4375 8.25 C6.05696351 12.65656528 7.83426405 16.83269467 10 21 C9.01 21 8.02 21 7 21 C6.67 21.66 6.34 22.32 6 23 C-0.47832981 7.65327696 -0.47832981 7.65327696 0 0 Z " fill="#D7D0FC" transform="translate(106,40)"/>
<path d="M0 0 C3.39940161 1.50133755 5.91441862 3.4761038 8.6875 5.9375 C9.47511719 6.62714844 10.26273438 7.31679687 11.07421875 8.02734375 C13 10 13 10 14 13 C10.24868988 11.23576999 6.76463789 9.06102752 3.25 6.875 C2.64800781 6.50246094 2.04601562 6.12992188 1.42578125 5.74609375 C-0.05042343 4.83225276 -1.52534154 3.91633402 -3 3 C-2.01 2.01 -1.02 1.02 0 0 Z " fill="#EAE5FD" transform="translate(231,156)"/>
<path d="M0 0 C0.33 0 0.66 0 1 0 C0.68676801 7.36095182 -0.93914605 13.30883089 -4 20 C-7 20 -7 20 -9 19 C-8.52820313 18.19949219 -8.52820313 18.19949219 -8.046875 17.3828125 C-4.81798493 11.7614316 -2.268115 6.06942506 0 0 Z " fill="#D5CDFC" transform="translate(219,84)"/>
<path d="M0 0 C3.50877804 4.29586242 4.70451499 8.74835191 6.25 14 C6.53101563 14.90234375 6.81203125 15.8046875 7.1015625 16.734375 C7.36195313 17.60578125 7.62234375 18.4771875 7.890625 19.375 C8.12813477 20.16648437 8.36564453 20.95796875 8.61035156 21.7734375 C9.03378491 24.19305662 8.76883534 25.68953772 8 28 C4.57142857 20.71428571 4.57142857 20.71428571 5 16 C4.34 16 3.68 16 3 16 C2.49411853 14.08487728 1.99551609 12.16783078 1.5 10.25 C1.2215625 9.18265625 0.943125 8.1153125 0.65625 7.015625 C0 4 0 4 0 0 Z " fill="#5F52CE" transform="translate(304,102)"/>
<path d="M0 0 C0.66 0.33 1.32 0.66 2 1 C2 2.32 2 3.64 2 5 C-0.265625 6.8515625 -0.265625 6.8515625 -3.25 8.625 C-4.22453125 9.21539062 -5.1990625 9.80578125 -6.203125 10.4140625 C-8.44289891 11.68410189 -10.68064793 12.8845021 -13 14 C-11.43416404 9.96278439 -8.55826135 7.52929418 -5.375 4.75 C-4.859375 4.29109375 -4.34375 3.8321875 -3.8125 3.359375 C-2.5465398 2.23407704 -1.27392058 1.11627823 0 0 Z " fill="#E6E1FE" transform="translate(95,113)"/>
<path d="M0 0 C1.32 0.33 2.64 0.66 4 1 C3.78520698 7.12160109 2.63563563 10.17395789 -1.4296875 14.75 C-3 16 -3 16 -6 16 C-4.82272545 13.44923847 -3.55869688 11.40294284 -1.875 9.125 C0.18214631 5.69642282 0.37305442 3.9170714 0 0 Z " fill="#5B4ED8" transform="translate(91,95)"/>
<path d="M0 0 C0.66 0 1.32 0 2 0 C3.69155793 2.70649269 4.2150566 5.0661133 4.5625 8.1875 C4.57461534 11.78190939 4.57461534 11.78190939 6 13 C6.12487758 14.80927281 6.17570846 16.62396107 6.1875 18.4375 C6.20167969 19.42621094 6.21585938 20.41492188 6.23046875 21.43359375 C6 24 6 24 4 26 C0.875 26.125 0.875 26.125 -2 26 C-2 25.67 -2 25.34 -2 25 C-0.35 24.67 1.3 24.34 3 24 C3.51917486 15.65474478 1.95829294 8.08961486 0 0 Z " fill="#5E51CE" transform="translate(95,40)"/>
<path d="M0 0 C0.66 0 1.32 0 2 0 C2 5.94 2 11.88 2 18 C1.01 18.33 0.02 18.66 -1 19 C-3.18959031 12.43122908 -1.8449056 6.45716958 0 0 Z " fill="#4B3BDD" transform="translate(227,89)"/>
<path d="M0 0 C2.11470482 3.76926554 3.26198732 7.82204574 4.5 11.9375 C5.84099677 16.37091659 7.1939328 20.72731324 9 25 C6 24 6 24 4.90234375 22.00390625 C4.58394531 21.19824219 4.26554687 20.39257812 3.9375 19.5625 C2.81367045 16.75066945 2.1627793 15.1627793 0 13 C-0.1953125 9.9609375 -0.1953125 9.9609375 -0.125 6.375 C-0.10695313 5.18648437 -0.08890625 3.99796875 -0.0703125 2.7734375 C-0.04710938 1.85820313 -0.02390625 0.94296875 0 0 Z " fill="#5547D0" transform="translate(105,41)"/>
<path d="M0 0 C0.96679688 0.00902344 1.93359375 0.01804688 2.9296875 0.02734375 C3.65414063 0.03894531 4.37859375 0.05054688 5.125 0.0625 C-0.0005578 3.47953853 -5.34725078 3.19975152 -11.375 3.1875 C-13.27765625 3.19136719 -13.27765625 3.19136719 -15.21875 3.1953125 C-18.53605518 3.0748121 -21.62130764 2.6951624 -24.875 2.0625 C-24.875 1.7325 -24.875 1.4025 -24.875 1.0625 C-24.00617188 1.07410156 -23.13734375 1.08570313 -22.2421875 1.09765625 C-21.08976563 1.10667969 -19.93734375 1.11570313 -18.75 1.125 C-17.04457031 1.14240234 -17.04457031 1.14240234 -15.3046875 1.16015625 C-10.13263179 1.01288815 -5.20195305 -0.06343845 0 0 Z " fill="#5649CA" transform="translate(271.875,204.9375)"/>
<path d="M0 0 C0 0.66 0 1.32 0 2 C-5.83579076 3.68442142 -10.94460204 4.26143011 -17 4.125 C-18.16208984 4.11146484 -18.16208984 4.11146484 -19.34765625 4.09765625 C-21.23190843 4.07439388 -23.11599832 4.0385364 -25 4 C-25 3.67 -25 3.34 -25 3 C-21.58399853 2.49538375 -18.1671006 1.99711424 -14.75 1.5 C-13.78191406 1.35691406 -12.81382813 1.21382813 -11.81640625 1.06640625 C-10.41455078 0.86337891 -10.41455078 0.86337891 -8.984375 0.65625 C-8.12553711 0.53056641 -7.26669922 0.40488281 -6.38183594 0.27539062 C-4 0 -4 0 0 0 Z " fill="#574ACC" transform="translate(75,87)"/>
<path d="M0 0 C1.98 0 3.96 0 6 0 C3.9585653 2.15074847 1.90083747 3.8515856 -0.57421875 5.48046875 C-1.24130859 5.92197266 -1.90839844 6.36347656 -2.59570312 6.81835938 C-3.28599609 7.27017578 -3.97628906 7.72199219 -4.6875 8.1875 C-5.38939453 8.65091797 -6.09128906 9.11433594 -6.81445312 9.59179688 C-8.54089495 10.73101359 -10.27017239 11.86593098 -12 13 C-12 12.01 -12 11.02 -12 10 C-11.34 10 -10.68 10 -10 10 C-10 9.34 -10 8.68 -10 8 C-9.34 8 -8.68 8 -8 8 C-7.67 7.01 -7.34 6.02 -7 5 C-5.02 4.67 -3.04 4.34 -1 4 C-0.67 2.68 -0.34 1.36 0 0 Z " fill="#5547CC" transform="translate(260,99)"/>
<path d="M0 0 C-0.1875 1.875 -0.1875 1.875 -1 4 C-3.5625 5.25 -3.5625 5.25 -6 6 C-5.01 4.68 -4.02 3.36 -3 2 C-4.26457031 2.6496875 -4.26457031 2.6496875 -5.5546875 3.3125 C-6.65039062 3.869375 -7.74609375 4.42625 -8.875 5 C-9.96554688 5.556875 -11.05609375 6.11375 -12.1796875 6.6875 C-15 8 -15 8 -17 8 C-17 7.34 -17 6.68 -17 6 C-16.34 6 -15.68 6 -15 6 C-15 5.01 -15 4.02 -15 3 C-12.66836622 2.32741333 -10.3347961 1.66152556 -8 1 C-7.278125 0.79375 -6.55625 0.5875 -5.8125 0.375 C-4 0 -4 0 0 0 Z " fill="#5243D3" transform="translate(263,89)"/>
<path d="M0 0 C6.40593286 1.10690752 12.71363856 2.33945169 19 4 C19 4.33 19 4.66 19 5 C10.75 4.67 2.5 4.34 -6 4 C-6 3.67 -6 3.34 -6 3 C-3.36 3 -0.72 3 2 3 C2 2.34 2 1.68 2 1 C1.34 0.67 0.68 0.34 0 0 Z " fill="#DBD3FE" transform="translate(254,138)"/>
<path d="M0 0 C0 0.66 0 1.32 0 2 C-0.99 2.495 -0.99 2.495 -2 3 C-2.33 3.99 -2.66 4.98 -3 6 C-5.0625 6.6875 -5.0625 6.6875 -7 7 C-8.05619003 11.28297531 -8.11702092 15.42985646 -8.0625 19.8125 C-8.05798828 20.50537109 -8.05347656 21.19824219 -8.04882812 21.91210938 C-8.03713156 23.60811068 -8.01919924 25.30406703 -8 27 C-11.00154524 22.00141072 -10.48515352 16.64749018 -10 11 C-8.52417242 6.72786752 -5.14028762 0 0 0 Z " fill="#665ACB" transform="translate(200,53)"/>
<path d="M0 0 C5.53710844 4.31894458 9.61621268 8.80258732 13 15 C13 15.66 13 16.32 13 17 C12.34 17 11.68 17 11 17 C11 16.01 11 15.02 11 14 C10.01 14 9.02 14 8 14 C6 11 6 11 6 7 C5.01 6.67 4.02 6.34 3 6 C3 5.34 3 4.68 3 4 C2.01 4 1.02 4 0 4 C0 2.68 0 1.36 0 0 Z " fill="#584BCC" transform="translate(285,73)"/>
<path d="M0 0 C0.66 0.33 1.32 0.66 2 1 C-0.28765111 2.67243423 -2.57973892 4.33806927 -4.875 6 C-5.52597656 6.47695312 -6.17695313 6.95390625 -6.84765625 7.4453125 C-11.7734375 11 -11.7734375 11 -14 11 C-14 9.68 -14 8.36 -14 7 C-11.71296692 5.80274117 -9.42115138 4.61702982 -7.125 3.4375 C-6.14853516 2.92413086 -6.14853516 2.92413086 -5.15234375 2.40039062 C-3.46470143 1.53917109 -1.73420407 0.76313297 0 0 Z " fill="#D7CEFE" transform="translate(260,90)"/>
<path d="M0 0 C0.95455078 -0.020625 1.90910156 -0.04125 2.89257812 -0.0625 C3.81361328 -0.06765625 4.73464844 -0.0728125 5.68359375 -0.078125 C6.5233374 -0.0874707 7.36308105 -0.09681641 8.22827148 -0.10644531 C11.05180003 0.32471792 12.43547967 1.39349083 14.5625 3.25 C13.5725 3.745 13.5725 3.745 12.5625 4.25 C12.02367187 3.94449219 11.48484375 3.63898438 10.9296875 3.32421875 C7.56332736 1.79658007 4.31019894 1.99935204 0.6875 2.0625 C-0.35470703 2.0634668 -0.35470703 2.0634668 -1.41796875 2.06445312 C-5.52101936 2.09922474 -9.41248789 2.46140045 -13.4375 3.25 C-13.4375 2.59 -13.4375 1.93 -13.4375 1.25 C-8.99789131 -0.22986956 -4.65072847 0.02502073 0 0 Z " fill="#584BCA" transform="translate(121.4375,102.75)"/>
<path d="M0 0 C0.66 0.33 1.32 0.66 2 1 C1.360625 1.598125 0.72125 2.19625 0.0625 2.8125 C-2.20310389 4.90810337 -2.20310389 4.90810337 -3 8 C-4.3921875 8.61875 -4.3921875 8.61875 -5.8125 9.25 C-10.01947996 11.55971449 -10.91526111 13.75033995 -13 18 C-13.6875 16.2421875 -13.6875 16.2421875 -14 14 C-12.8125 12.0703125 -12.8125 12.0703125 -11 10.125 C-10.35933594 9.43664062 -9.71867188 8.74828125 -9.05859375 8.0390625 C-6.16873985 5.17662657 -3.1508884 2.5721538 0 0 Z " fill="#695DCA" transform="translate(264,102)"/>
<path d="M0 0 C0.671875 1.734375 0.671875 1.734375 1 4 C-0.109375 6.140625 -0.109375 6.140625 -1.75 8.25 C-2.28109375 8.95640625 -2.8121875 9.6628125 -3.359375 10.390625 C-5 12 -5 12 -8 12 C-6.66786942 8.4134946 -5.23083941 5.12317517 -3 2 C-2.01 2 -1.02 2 0 2 C0 1.34 0 0.68 0 0 Z " fill="#5648D5" transform="translate(35,39)"/>
<path d="M0 0 C3.25 -0.25 3.25 -0.25 7 0 C8.35573748 1.31054623 9.68612831 2.64748503 11 4 C13.93738096 5.22305584 16.93952159 6.13678814 20 7 C20 7.66 20 8.32 20 9 C12.84870304 7.12849037 6.50594543 4.50213658 0 1 C0 0.67 0 0.34 0 0 Z " fill="#5B4DCA" transform="translate(226,197)"/>
<path d="M0 0 C1.41366158 0.20895363 2.83060623 0.39690406 4.25 0.5625 C5.4875 0.706875 6.725 0.85125 8 1 C8 1.33 8 1.66 8 2 C0.41 2.33 -7.18 2.66 -15 3 C-12.41464321 1.27642881 -10.96188386 0.55264982 -8.0625 -0.1875 C-7.39347656 -0.36667969 -6.72445312 -0.54585938 -6.03515625 -0.73046875 C-3.7126729 -1.03805292 -2.23656602 -0.651427 0 0 Z " fill="#CCC3FC" transform="translate(68,98)"/>
<path d="M0 0 C0.66 0 1.32 0 2 0 C2 0.66 2 1.32 2 2 C2.66 2 3.32 2 4 2 C4.125 4.875 4.125 4.875 4 8 C0.87506296 11.12493704 -1.91645015 11.95911133 -6.3125 12.125 C-7.199375 12.08375 -8.08625 12.0425 -9 12 C-1.5 7 -1.5 7 2 7 C1.34 4.69 0.68 2.38 0 0 Z " fill="#5C4ECF" transform="translate(85,75)"/>
<path d="M0 0 C0.66 0 1.32 0 2 0 C0.39538674 5.74986417 -1.7076303 9.48911997 -6.75 12.8125 C-7.4925 13.204375 -8.235 13.59625 -9 14 C-8.67 12.68 -8.34 11.36 -8 10 C-7.01 10 -6.02 10 -5 10 C-4.8453125 8.824375 -4.8453125 8.824375 -4.6875 7.625 C-4 5 -4 5 -1 3 C-0.67 2.01 -0.34 1.02 0 0 Z " fill="#5446CC" transform="translate(117,136)"/>
<path d="M0 0 C1.65 0.33 3.3 0.66 5 1 C1.65996398 5.32239956 -1.32751069 8.17477391 -6 11 C-4.54955729 6.89041233 -2.48889248 3.56741255 0 0 Z " fill="#D8D1FB" transform="translate(76,113)"/>
<path d="M0 0 C4.52615993 3.67832017 8.39424999 7.41086363 12 12 C11.01 12 10.02 12 9 12 C9 11.34 9 10.68 9 10 C7.68 10 6.36 10 5 10 C4.34 8.35 3.68 6.7 3 5 C2.34 5 1.68 5 1 5 C0.67 3.35 0.34 1.7 0 0 Z " fill="#594CCE" transform="translate(141,90)"/>
<path d="M0 0 C0.72445312 0.47050781 1.44890625 0.94101562 2.1953125 1.42578125 C9.40010298 6.06820817 9.40010298 6.06820817 17 10 C16.67 10.66 16.34 11.32 16 12 C15.01 12 14.02 12 13 12 C13 11.34 13 10.68 13 10 C12.34 9.773125 11.68 9.54625 11 9.3125 C8.42919876 8.18777446 6.09951824 6.98486244 3.6875 5.5625 C2.99011719 5.15128906 2.29273437 4.74007812 1.57421875 4.31640625 C1.05472656 3.88199219 0.53523438 3.44757812 0 3 C0 2.01 0 1.02 0 0 Z " fill="#5749CB" transform="translate(71,53)"/>
<path d="M0 0 C0.99 0.495 0.99 0.495 2 1 C2.40729228 3.32156597 2.74438677 5.6568787 3 8 C3.66 8 4.32 8 5 8 C5.33 8.99 5.66 9.98 6 11 C6.66 11.33 7.32 11.66 8 12 C8 13.65 8 15.3 8 17 C3.4290689 13.40855414 1.69417009 8.39791428 0 3 C0 2.01 0 1.02 0 0 Z " fill="#6457CD" transform="translate(204,168)"/>
<path d="M0 0 C1.98 0.495 1.98 0.495 4 1 C3.01 1 2.02 1 1 1 C2.02396197 3.75682069 3.06395172 6.09711187 4.6875 8.5625 C6 11 6 11 5.58203125 13.15234375 C5.38996094 13.76207031 5.19789063 14.37179688 5 15 C3.96427104 13.25877451 2.9468748 11.50663405 1.9375 9.75 C1.08478516 8.28820312 1.08478516 8.28820312 0.21484375 6.796875 C-1 4 -1 4 -0.68359375 1.640625 C-0.45800781 1.09921875 -0.23242188 0.5578125 0 0 Z " fill="#5D51CA" transform="translate(246,142)"/>
<path d="M0 0 C1.49828872 3.88235819 0.43110582 6.43449288 -0.9375 10.25 C-1.31777344 11.32765625 -1.69804687 12.4053125 -2.08984375 13.515625 C-2.39019531 14.33546875 -2.69054687 15.1553125 -3 16 C-4.32 15.67 -5.64 15.34 -7 15 C-6.36771484 13.75283203 -6.36771484 13.75283203 -5.72265625 12.48046875 C-5.17480469 11.39378906 -4.62695312 10.30710937 -4.0625 9.1875 C-3.51722656 8.10855469 -2.97195312 7.02960938 -2.41015625 5.91796875 C-0.9414793 3.03788473 -0.9414793 3.03788473 0 0 Z " fill="#6255D0" transform="translate(218,94)"/>
<path d="M0 0 C4.49797113 1.68673918 8.72886302 3.81673892 13 6 C12.67 7.32 12.34 8.64 12 10 C9.99708788 8.52464063 7.99763223 7.04497707 6 5.5625 C5.42765625 5.14162109 4.8553125 4.72074219 4.265625 4.28710938 C2.82546081 3.21555864 1.41048004 2.11033324 0 1 C0 0.67 0 0.34 0 0 Z " fill="#CDC4FC" transform="translate(65,48)"/>
<path d="M0 0 C1.31712811 3.62210231 0.68301982 5.67244777 -0.75 9.1875 C-1.26820312 10.50814453 -1.26820312 10.50814453 -1.796875 11.85546875 C-3 14 -3 14 -6 15 C-4.36041242 9.76727367 -2.61047965 4.84803364 0 0 Z " fill="#5F52CF" transform="translate(26,51)"/>
<path d="M0 0 C0.66 0 1.32 0 2 0 C0.75696561 5.17930997 -0.85487785 8.70166639 -4 13 C-4.66 12.67 -5.32 12.34 -6 12 C-6 11.01 -6 10.02 -6 9 C-5.01 8.34 -4.02 7.68 -3 7 C-2.27034634 4.43717258 -2.27034634 4.43717258 -2 2 C-1.34 2 -0.68 2 0 2 C0 1.34 0 0.68 0 0 Z " fill="#5648CE" transform="translate(215,90)"/>
<path d="M0 0 C4.67105792 1.55701931 8.08705685 4.08447373 12 7 C11.67 8.32 11.34 9.64 11 11 C9.16365304 9.35742342 7.3308593 7.71117305 5.5 6.0625 C4.97535156 5.59392578 4.45070313 5.12535156 3.91015625 4.64257812 C2.5878256 3.44904592 1.29166061 2.22665821 0 1 C0 0.67 0 0.34 0 0 Z " fill="#CDC4FC" transform="translate(59,57)"/>
<path d="M0 0 C2.31 1.65 4.62 3.3 7 5 C6.67 4.01 6.34 3.02 6 2 C7.32 2.33 8.64 2.66 10 3 C9.42655063 5.86724686 9.1385485 6.8614515 7 9 C7 8.34 7 7.68 7 7 C6.21625 6.773125 5.4325 6.54625 4.625 6.3125 C2 5 2 5 0.6875 2.375 C0.460625 1.59125 0.23375 0.8075 0 0 Z " fill="#5345D4" transform="translate(249,160)"/>
<path d="M0 0 C0.66 0.33 1.32 0.66 2 1 C-0.97 3.64 -3.94 6.28 -7 9 C-8.32 8.34 -9.64 7.68 -11 7 C-9.21475351 5.80286983 -7.4215972 4.61752721 -5.625 3.4375 C-4.62726563 2.77621094 -3.62953125 2.11492187 -2.6015625 1.43359375 C-1.74304688 0.96050781 -0.88453125 0.48742187 0 0 Z " fill="#CAC1FB" transform="translate(266,99)"/>
<path d="M0 0 C0 0.66 0 1.32 0 2 C0.66 2.33 1.32 2.66 2 3 C-3.05002222 4.03590199 -7.87416389 4.10251672 -13 4 C-10.34531286 2.23020858 -8.92500069 1.57859829 -5.9375 0.875 C-5.24527344 0.70742187 -4.55304687 0.53984375 -3.83984375 0.3671875 C-2 0 -2 0 0 0 Z " fill="#D4CBFB" transform="translate(61,86)"/>
<path d="M0 0 C1.5 1.375 1.5 1.375 3 3 C3 3.66 3 4.32 3 5 C3.99 5.33 4.98 5.66 6 6 C4.02 6.99 4.02 6.99 2 8 C0.4375 6.8125 0.4375 6.8125 -1 5 C-0.6875 2.3125 -0.6875 2.3125 0 0 Z " fill="#5142D6" transform="translate(252,116)"/>
<path d="M0 0 C3.7952131 1.49097658 5.61042731 3.75700849 8 7 C4.60406522 7 3.93380119 6.47834052 1.3125 4.5 C0.68988281 4.0359375 0.06726563 3.571875 -0.57421875 3.09375 C-1.04472656 2.7328125 -1.51523438 2.371875 -2 2 C-1.34 1.34 -0.68 0.68 0 0 Z " fill="#D0C8FB" transform="translate(237,161)"/>
<path d="M0 0 C0.66 0 1.32 0 2 0 C0.33333333 5 -1.33333333 10 -3 15 C-3.33 15 -3.66 15 -4 15 C-3.48041715 10.62065881 -2.94324258 6.31196609 -2 2 C-1.34 2 -0.68 2 0 2 C0 1.34 0 0.68 0 0 Z " fill="#5648CB" transform="translate(175,162)"/>
<path d="M0 0 C2.31 0 4.62 0 7 0 C4.87033995 2.12966005 3.95931796 2.47624662 1.125 3.1875 C0.44695312 3.36667969 -0.23109375 3.54585937 -0.9296875 3.73046875 C-3.22818556 4.02970718 -4.80550964 3.69377386 -7 3 C-3.535 2.505 -3.535 2.505 0 2 C0 1.34 0 0.68 0 0 Z " fill="#574BC7" transform="translate(81,161)"/>
<path d="M0 0 C2.40072955 2.88087546 4.47291037 5.56404834 6 9 C2.2047869 7.50902342 0.38957269 5.24299151 -2 2 C-1.34 2 -0.68 2 0 2 C0 1.34 0 0.68 0 0 Z " fill="#CDC4FC" transform="translate(251,157)"/>
<path d="M0 0 C-0.99 1.485 -0.99 1.485 -2 3 C-5.625 3.6875 -5.625 3.6875 -9 4 C-8.67 3.01 -8.34 2.02 -8 1 C-5.29120665 -0.35439668 -2.99066732 -0.06501451 0 0 Z " fill="#5140D5" transform="translate(111,113)"/>
<path d="M0 0 C2.5178998 1.2589499 2.92708464 2.39057117 4.1875 4.875 C4.55230469 5.57367188 4.91710937 6.27234375 5.29296875 6.9921875 C6 9 6 9 5 12 C3 11 3 11 1.9375 8.25 C1.14502508 5.5027536 0.49646926 2.81332583 0 0 Z " fill="#5D52CB" transform="translate(298,90)"/>
<path d="M0 0 C0.33 0 0.66 0 1 0 C1 5.28 1 10.56 1 16 C0.01 16.33 -0.98 16.66 -2 17 C-1.85941524 14.54126232 -1.71277001 12.08314825 -1.5625 9.625 C-1.52318359 8.92632812 -1.48386719 8.22765625 -1.44335938 7.5078125 C-1.11328125 2.2265625 -1.11328125 2.2265625 0 0 Z " fill="#6053CE" transform="translate(228,91)"/>
<path d="M0 0 C1.32 0 2.64 0 4 0 C4.66 1.32 5.32 2.64 6 4 C4.02 4.99 4.02 4.99 2 6 C0 3 0 3 0 0 Z " fill="#EFEAFE" transform="translate(113,61)"/>
<path d="M0 0 C0.99 0 1.98 0 3 0 C6.07692308 5.41538462 6.07692308 5.41538462 5.6875 8.375 C5.460625 8.91125 5.23375 9.4475 5 10 C1.125 3.375 1.125 3.375 0 0 Z " fill="#5D50CD" transform="translate(146,115)"/>
<path d="M0 0 C2 3 2 3 2 5 C2.66 5 3.32 5 4 5 C4.33 6.32 4.66 7.64 5 9 C4.01 9.495 4.01 9.495 3 10 C-0.22265625 4.82421875 -0.22265625 4.82421875 -1 3 C-0.67 2.01 -0.34 1.02 0 0 Z " fill="#5649D1" transform="translate(199,92)"/>
<path d="M0 0 C0.33 0.66 0.66 1.32 1 2 C1.66 2.33 2.32 2.66 3 3 C1.625 4.5 1.625 4.5 0 6 C-0.66 6 -1.32 6 -2 6 C-1.67 6.99 -1.34 7.98 -1 9 C-1.99 9 -2.98 9 -4 9 C-2.80100302 5.9168649 -1.52299523 2.93720508 0 0 Z " fill="#E6E1FC" transform="translate(132,46)"/>
<path d="M0 0 C2.97 0.495 2.97 0.495 6 1 C6.33 2.65 6.66 4.3 7 6 C3.73539027 4.19587357 2.11070205 3.16605307 0 0 Z " fill="#6153D2" transform="translate(212,186)"/>
<path d="M0 0 C0.99 0 1.98 0 3 0 C3 1.32 3 2.64 3 4 C1.35 4.33 -0.3 4.66 -2 5 C-1.125 1.125 -1.125 1.125 0 0 Z " fill="#4A39EF" transform="translate(80,119)"/>
<path d="M0 0 C3.96 0 7.92 0 12 0 C12 0.99 12 1.98 12 3 C6.06 2.01 6.06 2.01 0 1 C0 0.67 0 0.34 0 0 Z " fill="#6658D5" transform="translate(260,139)"/>
<path d="M0 0 C0.99 0 1.98 0 3 0 C3.66 1.98 4.32 3.96 5 6 C4.01 6 3.02 6 2 6 C1.34 4.02 0.68 2.04 0 0 Z " fill="#5C4ED1" transform="translate(19,134)"/>
<path d="M0 0 C0.66 0.33 1.32 0.66 2 1 C1.360625 1.598125 0.72125 2.19625 0.0625 2.8125 C-2.20310389 4.90810337 -2.20310389 4.90810337 -3 8 C-3.99 8 -4.98 8 -6 8 C-4.55746343 4.63408134 -2.66735273 2.48952921 0 0 Z " fill="#5447CD" transform="translate(264,102)"/>
<path d="M0 0 C2.31 0.33 4.62 0.66 7 1 C6.34 2.32 5.68 3.64 5 5 C3.0625 4.1875 3.0625 4.1875 1 3 C0.67 2.01 0.34 1.02 0 0 Z " fill="#5C4FC5" transform="translate(203,102)"/>
<path d="M0 0 C1.98 0 3.96 0 6 0 C3.82575883 2.50037734 2.26954202 3.43628586 -1 4 C-0.67 2.68 -0.34 1.36 0 0 Z " fill="#5042D5" transform="translate(260,99)"/>
<path d="M0 0 C0.33 0 0.66 0 1 0 C1.36923077 7.50769231 1.36923077 7.50769231 -0.5 10 C-0.995 10.33 -1.49 10.66 -2 11 C-1.125 3.375 -1.125 3.375 0 0 Z " fill="#6C60CD" transform="translate(16,76)"/>
<path d="M0 0 C3.26460973 1.80412643 4.88929795 2.83394693 7 6 C5.68 6 4.36 6 3 6 C3 5.34 3 4.68 3 4 C2.34 4 1.68 4 1 4 C0.67 2.68 0.34 1.36 0 0 Z " fill="#5649CC" transform="translate(274,63)"/>
<path d="M0 0 C1.65 0 3.3 0 5 0 C2.60490662 2.89932357 0.68754757 3.50168276 -3 4 C-3 3.34 -3 2.68 -3 2 C-2.01 2 -1.02 2 0 2 C0 1.34 0 0.68 0 0 Z " fill="#5648CA" transform="translate(91,157)"/>
<path d="M0 0 C0.66 0.99 1.32 1.98 2 3 C-0.31 4.32 -2.62 5.64 -5 7 C-3.70700306 4.11562221 -2.34058637 2.12780579 0 0 Z " fill="#CFC6FD" transform="translate(87,120)"/>
<path d="M0 0 C0.625 1.875 0.625 1.875 1 4 C0.34 4.66 -0.32 5.32 -1 6 C-3.125 5.625 -3.125 5.625 -5 5 C-3.35 3.35 -1.7 1.7 0 0 Z " fill="#EAE5FE" transform="translate(215,98)"/>
<path d="M0 0 C0.99 0 1.98 0 3 0 C2.34 1.65 1.68 3.3 1 5 C-0.32 5 -1.64 5 -3 5 C-3.33 4.34 -3.66 3.68 -4 3 C-2.68 3.33 -1.36 3.66 0 4 C0 2.68 0 1.36 0 0 Z " fill="#6054C5" transform="translate(121,59)"/>
</svg>
